Coordinates
version=1
nRows=6
nColumns=46
inDegrees=yes

Units are S.I. units (second, meters, Newtons, ...)
Angles are in degrees.

endheader
time	pelvis_tilt	pelvis_list	pelvis_rotation	pelvis_tx	pelvis_ty	pelvis_tz	bb_angle	bb_tx	bb_ty	bb_tz	hip_flexion_r	hip_adduction_r	hip_rotation_r	knee_angle_r	knee_angle_r_beta	ankle_angle_r	subtalar_angle_r	mtp_angle_r	crank_angle_r	hip_flexion_l	hip_adduction_l	hip_rotation_l	knee_angle_l	knee_angle_l_beta	ankle_angle_l	subtalar_angle_l	mtp_angle_l	crank_angle_l	lumbar_extension	lumbar_bending	lumbar_rotation	arm_flex_r	arm_add_r	arm_rot_r	elbow_flex_r	pro_sup_r	wrist_flex_r	wrist_dev_r	arm_flex_l	arm_add_l	arm_rot_l	elbow_flex_l	pro_sup_l	wrist_flex_l	wrist_dev_l
      2.50000000	    -38.56508638	      0.02621922	    -10.22703325	      0.25969393	      1.08395453	     -0.19620031	      0.00000000	      0.50000000	      0.00000000	      0.25000000	     85.98351711	      5.34233042	      2.11104465	     82.46839623	      1.43934504	     21.97351775	     -4.14425043	      0.00000000	      0.00000000	     38.22299123	    -11.99844057	    -10.45416015	     22.35708480	      0.39020474	    -36.45459068	     -2.80153618	      0.00000000	      0.00000000	    -37.88346239	      2.04390659	      4.66882008	     67.68458243	    -12.83536995	     54.87844341	     60.63204178	     54.10653268	      0.00000000	      0.00000000	     43.20664597	    -24.15774448	     13.58370557	     69.83139475	     47.52452327	      0.00000000	      0.00000000
      2.50500000	    -38.49977453	      0.04235240	     -9.80593021	      0.26021091	      1.08570314	     -0.19516727	      0.00000000	      0.50000000	      0.00000000	      0.25000000	     85.28929467	      5.30042311	      2.24408400	     80.95895345	      1.41300030	     21.21765300	     -4.93135551	      0.00000000	      0.00000000	     38.77722645	    -11.78189992	     -9.41666004	     23.66817110	      0.41308751	    -36.65313658	     -3.44665385	      0.00000000	      0.00000000	    -38.10185232	      2.14185983	      4.77637404	     66.54732393	    -12.66425288	     52.43833507	     61.21272752	     53.82363181	      0.00000000	      0.00000000	     44.41798907	    -24.11811950	     15.08979998	     68.16271581	     47.72265799	      0.00000000	      0.00000000
      2.51000000	    -38.27477109	      0.05173481	     -9.33939348	      0.26084375	      1.08739397	     -0.19449201	      0.00000000	      0.50000000	      0.00000000	      0.25000000	     84.46222865	      5.11656501	      2.35218355	     79.53221261	      1.38809897	     20.66315409	     -5.27487067	      0.00000000	      0.00000000	     39.20515362	    -11.49389468	     -8.41077944	     25.08324853	      0.43778527	    -36.68720980	     -4.17232575	      0.00000000	      0.00000000	    -38.58378094	      2.36193777	      4.41560563	     66.45833747	    -12.56281088	     52.33046756	     61.52811652	     53.85268794	      0.00000000	      0.00000000	     44.71361476	    -24.32021766	     15.02233374	     68.02500332	     47.71901167	      0.00000000	      0.00000000
      2.51500000	    -38.15676746	     -0.01227384	     -8.74935995	      0.26111986	      1.08870826	     -0.19382571	      0.00000000	      0.50000000	      0.00000000	      0.25000000	     83.77758139	      4.85374384	      2.36610159	     78.14501886	      1.36388787	     19.83153299	     -6.05741826	      0.00000000	      0.00000000	     39.79706708	    -11.16750788	     -7.04683408	     26.49524983	      0.46242935	    -36.80793497	     -4.86286675	      0.00000000	      0.00000000	    -38.90678644	      2.74937263	      3.99409843	     66.30864960	    -12.37573835	     51.94681001	     62.05946367	     53.87258231	      0.00000000	      0.00000000	     44.90628942	    -24.64598734	     15.23257577	     67.73989751	     47.75396312	      0.00000000	      0.00000000
      2.52000000	    -37.83321875	      0.04194128	     -8.34349778	      0.26175012	      1.09009506	     -0.19302440	      0.00000000	      0.50000000	      0.00000000	      0.25000000	     82.88481579	      4.69929817	      2.59998936	     76.82083190	      1.34077645	     19.15745359	     -6.08884091	      0.00000000	      0.00000000	     40.14255228	    -10.89446751	     -6.31706428	     28.02361830	      0.48910441	    -36.69062067	     -5.46398543	      0.00000000	      0.00000000	    -39.42990317	      2.89058069	      3.73577717	     66.12826637	    -12.25086458	     51.74481742	     62.31308988	     53.88081547	      0.00000000	      0.00000000	     45.25432477	    -24.87517846	     15.29635374	     67.64791419	     47.76828366	      0.00000000	      0.00000000
      2.52500000	    -37.57319653	      0.01136882	     -7.86425848	      0.26220654	      1.09127375	     -0.19238388	      0.00000000	      0.50000000	      0.00000000	      0.25000000	     82.05212832	      4.46537862	      2.64514986	     75.45960157	      1.31701850	     18.44198669	     -6.46564589	      0.00000000	      0.00000000	     40.61528890	    -10.65052176	     -5.36041903	     29.61217319	      0.51682992	    -36.54253958	     -5.90293875	      0.00000000	      0.00000000	    -39.88131474	      3.16691863	      3.40577948	     65.96666256	    -12.09853770	     51.41288326	     62.67934209	     53.88951603	      0.00000000	      0.00000000	     45.50721796	    -25.16067620	     15.49303149	     67.46779638	     47.78615449	      0.00000000	      0.00000000
